<svg width="20" height="20" viewBox="0 0 20 20" fill="none" xmlns="http://www.w3.org/2000/svg">
<path d="M15.1725 13.9939C15.498 14.3193 15.498 14.8469 15.1725 15.1724C14.8471 15.4978 14.3194 15.4978 13.994 15.1724L9.99995 11.1784L6.00601 15.1724C5.68058 15.4978 5.15294 15.4978 4.8275 15.1724C4.50206 14.8469 4.50206 14.3193 4.82749 13.9939L8.82143 9.99986L4.82733 6.00583C4.50189 5.68039 4.50189 5.15276 4.82733 4.82733C5.15277 4.50189 5.68041 4.50189 6.00585 4.82733L9.99993 8.82134L13.9939 4.82734C14.3193 4.5019 14.8469 4.5019 15.1724 4.82733C15.4978 5.15277 15.4978 5.6804 15.1724 6.00584L11.1784 9.99984L15.1725 13.9939Z" fill="#858D9D"/>
</svg>
