<svg width="24" height="24" viewBox="0 0 24 24" fill="none" xmlns="http://www.w3.org/2000/svg">
<path fill-rule="evenodd" clip-rule="evenodd" d="M11 20C11 20.5523 11.4477 21 12 21C12.5523 21 13 20.5523 13 20V19.7465C15.5014 19.651 17.5 17.593 17.5 15.0682C17.5 12.8214 15.6786 11 13.4318 11H13V6.27392C13.797 6.37092 14.5238 6.75823 15.0475 7.34945C15.4137 7.76288 15.9953 8.00555 16.5 7.78125C17.0047 7.55695 17.2392 6.95834 16.9237 6.50507C16.0259 5.21544 14.5875 4.38385 13 4.26478V4C13 3.44772 12.5523 3 12 3C11.4477 3 11 3.44772 11 4V4.25347C8.49857 4.34898 6.5 6.40701 6.5 8.93182C6.5 11.1786 8.32139 13 10.5682 13H11V17.7261C10.203 17.6291 9.4762 17.2418 8.95253 16.6505C8.58633 16.2371 8.00468 15.9944 7.5 16.2188C6.99532 16.4431 6.76079 17.0417 7.07633 17.4949C7.97411 18.7846 9.41252 19.6161 11 19.7352V20ZM13 17.7439C14.3963 17.6505 15.5 16.4882 15.5 15.0682C15.5 13.926 14.574 13 13.4318 13H13V17.7439ZM11 11V6.25607C9.60366 6.34955 8.5 7.5118 8.5 8.93182C8.5 10.074 9.42596 11 10.5682 11H11Z" fill="#667085"/>
</svg>
