<svg width="20" height="20" viewBox="0 0 20 20" fill="none" xmlns="http://www.w3.org/2000/svg">
<path fill-rule="evenodd" clip-rule="evenodd" d="M9.99998 4.16675C15.1083 4.16675 17.5256 7.59172 18.3766 9.1929C18.6475 9.70275 18.6475 10.2974 18.3766 10.8073C17.5256 12.4084 15.1083 15.8334 9.99998 15.8334C4.89165 15.8334 2.47437 12.4084 1.6234 10.8073C1.35244 10.2974 1.35244 9.70274 1.62341 9.1929C2.47437 7.59172 4.89165 4.16675 9.99998 4.16675ZM5.69693 7.06483C4.31338 7.98153 3.50549 9.20294 3.09514 9.97507C3.09055 9.98369 3.08867 9.98967 3.08784 9.99295C3.08701 9.99629 3.08685 10.0001 3.08685 10.0001C3.08685 10.0001 3.08701 10.0039 3.08784 10.0072C3.08867 10.0105 3.09055 10.0165 3.09513 10.0251C3.50549 10.7972 4.31338 12.0186 5.69693 12.9353C5.12571 12.0995 4.79165 11.0888 4.79165 10.0001C4.79165 8.91133 5.12571 7.90061 5.69693 7.06483ZM14.303 12.9353C15.6866 12.0186 16.4945 10.7972 16.9048 10.0251C16.9094 10.0165 16.9113 10.0105 16.9121 10.0072C16.9127 10.005 16.913 10.002 16.913 10.002L16.9131 10.0001L16.9128 9.99641L16.9121 9.99295C16.9113 9.98967 16.9094 9.98369 16.9048 9.97507C16.4945 9.20294 15.6866 7.98154 14.303 7.06484C14.8743 7.90062 15.2083 8.91134 15.2083 10.0001C15.2083 11.0888 14.8743 12.0995 14.303 12.9353ZM6.45832 10.0001C6.45832 8.04407 8.04397 6.45841 9.99998 6.45841C11.956 6.45841 13.5416 8.04407 13.5416 10.0001C13.5416 11.9561 11.956 13.5417 9.99998 13.5417C8.04397 13.5417 6.45832 11.9561 6.45832 10.0001Z" fill="#667085"/>
</svg>
