<svg width="44" height="44" viewBox="0 0 44 44" fill="none" xmlns="http://www.w3.org/2000/svg">
<rect x="2" y="2" width="40" height="40" rx="20" fill="#DEDEFA"/>
<rect x="2" y="2" width="40" height="40" rx="20" stroke="#EFEFFD" stroke-width="4"/>
<path d="M17.3333 20.25C18.2998 20.25 19.0833 19.4665 19.0833 18.5C19.0833 17.5335 18.2998 16.75 17.3333 16.75C16.3668 16.75 15.5833 17.5335 15.5833 18.5C15.5833 19.4665 16.3668 20.25 17.3333 20.25Z" fill="#5C59E8"/>
<path fill-rule="evenodd" clip-rule="evenodd" d="M14.7083 11.2084C12.7753 11.2084 11.2083 12.7754 11.2083 14.7084V29.2917C11.2083 31.2247 12.7753 32.7917 14.7083 32.7917H29.2916C31.2246 32.7917 32.7916 31.2247 32.7916 29.2917V14.7084C32.7916 12.7754 31.2246 11.2084 29.2916 11.2084H14.7083ZM29.2916 13.5417H14.7083C14.064 13.5417 13.5416 14.064 13.5416 14.7084V23.7712L16.4569 21.9772C16.6509 21.8578 16.8966 21.8623 17.0862 21.9887L20.1975 24.0629L25.1419 20.2173C25.3525 20.0534 25.6475 20.0534 25.8581 20.2172L30.4583 23.7952V14.7084C30.4583 14.064 29.936 13.5417 29.2916 13.5417ZM13.5416 29.2917V26.511L16.7248 24.5521L20.3025 26.9372L25.5 22.8947L30.4583 26.7512V29.2917C30.4583 29.936 29.936 30.4584 29.2916 30.4584H14.7083C14.064 30.4584 13.5416 29.936 13.5416 29.2917Z" fill="#5C59E8"/>
</svg>
