<svg width="20" height="20" viewBox="0 0 20 20" fill="none" xmlns="http://www.w3.org/2000/svg">
<path fill-rule="evenodd" clip-rule="evenodd" d="M17.3047 6.82016C18.281 5.84385 18.281 4.26093 17.3047 3.28462L16.7155 2.69537C15.7391 1.71906 14.1562 1.71906 13.1799 2.69537L3.69097 12.1843C3.34624 12.529 3.10982 12.967 3.01082 13.4444L2.34111 16.6738C2.21932 17.261 2.73906 17.7807 3.32629 17.6589L6.55565 16.9892C7.03302 16.8902 7.47103 16.6538 7.81577 16.3091L17.3047 6.82016ZM16.1262 4.46313L15.5369 3.87388C15.2115 3.54844 14.6839 3.54844 14.3584 3.87388L13.4745 4.75779L15.2423 6.52556L16.1262 5.64165C16.4516 5.31621 16.4516 4.78857 16.1262 4.46313ZM14.0638 7.70407L12.296 5.9363L4.86948 13.3628C4.75457 13.4777 4.67577 13.6237 4.64277 13.7829L4.23082 15.7692L6.21721 15.3573C6.37634 15.3243 6.52234 15.2455 6.63726 15.1306L14.0638 7.70407Z" fill="#667085"/>
</svg>
