<svg width="20" height="20" viewBox="0 0 20 20" fill="none" xmlns="http://www.w3.org/2000/svg">
<path d="M9.16667 15.4167C9.16667 15.8769 9.53976 16.25 10 16.25C10.4602 16.25 10.8333 15.8769 10.8333 15.4167V10.8333H15.4167C15.8769 10.8333 16.25 10.4602 16.25 10C16.25 9.53976 15.8769 9.16667 15.4167 9.16667H10.8333V4.58333C10.8333 4.1231 10.4602 3.75 10 3.75C9.53976 3.75 9.16667 4.1231 9.16667 4.58333V9.16667H4.58333C4.1231 9.16667 3.75 9.53976 3.75 10C3.75 10.4602 4.1231 10.8333 4.58333 10.8333H9.16667V15.4167Z" fill="white"/>
</svg>
