<svg width="20" height="20" viewBox="0 0 20 20" fill="none" xmlns="http://www.w3.org/2000/svg">
<path d="M8.33333 8.12508C8.79357 8.12508 9.16666 8.49818 9.16666 8.95842V13.9584C9.16666 14.4187 8.79357 14.7917 8.33333 14.7917C7.87309 14.7917 7.5 14.4187 7.5 13.9584V8.95842C7.5 8.49818 7.87309 8.12508 8.33333 8.12508Z" fill="#667085"/>
<path d="M12.5 8.95842C12.5 8.49818 12.1269 8.12508 11.6667 8.12508C11.2064 8.12508 10.8333 8.49818 10.8333 8.95842V13.9584C10.8333 14.4187 11.2064 14.7917 11.6667 14.7917C12.1269 14.7917 12.5 14.4187 12.5 13.9584V8.95842Z" fill="#667085"/>
<path fill-rule="evenodd" clip-rule="evenodd" d="M15 5.00008V4.16675C15 2.78604 13.8807 1.66675 12.5 1.66675H7.5C6.11929 1.66675 5 2.78604 5 4.16675V5.00008H3.75C3.28976 5.00008 2.91666 5.37318 2.91666 5.83342C2.91666 6.29365 3.28976 6.66675 3.75 6.66675H4.16666V15.8334C4.16666 17.2141 5.28595 18.3334 6.66666 18.3334H13.3333C14.714 18.3334 15.8333 17.2141 15.8333 15.8334V6.66675H16.25C16.7102 6.66675 17.0833 6.29365 17.0833 5.83342C17.0833 5.37318 16.7102 5.00008 16.25 5.00008H15ZM12.5 3.33341H7.5C7.03976 3.33341 6.66666 3.70651 6.66666 4.16675V5.00008H13.3333V4.16675C13.3333 3.70651 12.9602 3.33341 12.5 3.33341ZM14.1667 6.66675H5.83333V15.8334C5.83333 16.2937 6.20643 16.6667 6.66666 16.6667H13.3333C13.7936 16.6667 14.1667 16.2937 14.1667 15.8334V6.66675Z" fill="#667085"/>
</svg>
