<svg width="44" height="44" viewBox="0 0 44 44" fill="none" xmlns="http://www.w3.org/2000/svg">
<rect x="2" y="2" width="40" height="40" rx="20" fill="#DEDEFA"/>
<rect x="2" y="2" width="40" height="40" rx="20" stroke="#EFEFFD" stroke-width="4"/>
<path fill-rule="evenodd" clip-rule="evenodd" d="M11.5 13.8334V30.1667C11.5 32.0997 13.067 33.6667 15 33.6667H29C30.933 33.6667 32.5 32.0997 32.5 30.1667V13.8334C32.5 11.9004 30.933 10.3334 29 10.3334H15C13.067 10.3334 11.5 11.9004 11.5 13.8334ZM27.8333 12.6667H29C29.6443 12.6667 30.1667 13.189 30.1667 13.8334V15.5834H27.8333V12.6667ZM25.5 12.6667H18.5V20.8334H25.5V12.6667ZM16.1667 12.6667V15.5834H13.8333V13.8334C13.8333 13.189 14.3557 12.6667 15 12.6667H16.1667ZM16.1667 20.8334V17.9167H13.8333V20.8334H16.1667ZM13.8333 28.4167V30.1667C13.8333 30.811 14.3557 31.3334 15 31.3334H16.1667V28.4167H13.8333ZM16.1667 26.0834H13.8333V23.1667H16.1667V26.0834ZM18.5 31.3334H25.5V23.1667H18.5V31.3334ZM30.1667 17.9167V20.8334H27.8333V17.9167H30.1667ZM27.8333 23.1667V26.0834H30.1667V23.1667H27.8333ZM30.1667 30.1667V28.4167H27.8333V31.3334H29C29.6443 31.3334 30.1667 30.811 30.1667 30.1667Z" fill="#5C59E8"/>
</svg>
