<svg width="134" height="18" viewBox="0 0 134 18" fill="none" xmlns="http://www.w3.org/2000/svg">
<circle cx="6" cy="9" r="6" fill="#5C59E8"/>
<path d="M18.9588 13V4.27273H22.0696C22.7457 4.27273 23.3068 4.3892 23.7528 4.62216C24.2017 4.85511 24.5369 5.17756 24.7585 5.58949C24.9801 5.99858 25.0909 6.47159 25.0909 7.00852C25.0909 7.54261 24.9787 8.01278 24.7543 8.41903C24.5327 8.82244 24.1974 9.13636 23.7486 9.3608C23.3026 9.58523 22.7415 9.69744 22.0653 9.69744H19.7088V8.56392H21.946C22.3722 8.56392 22.7188 8.50284 22.9858 8.38068C23.2557 8.25852 23.4531 8.08097 23.5781 7.84801C23.7031 7.61506 23.7656 7.33523 23.7656 7.00852C23.7656 6.67898 23.7017 6.39347 23.5739 6.15199C23.4489 5.91051 23.2514 5.72585 22.9815 5.59801C22.7145 5.46733 22.3636 5.40199 21.929 5.40199H20.2756V13H18.9588ZM23.267 9.0625L25.4233 13H23.9233L21.8097 9.0625H23.267ZM29.3899 13.1321C28.745 13.1321 28.1896 12.9943 27.7237 12.7188C27.2606 12.4403 26.9027 12.0497 26.6498 11.5469C26.3998 11.0412 26.2748 10.4489 26.2748 9.76989C26.2748 9.09943 26.3998 8.50852 26.6498 7.99716C26.9027 7.4858 27.255 7.08665 27.7067 6.79972C28.1612 6.51278 28.6925 6.36932 29.3004 6.36932C29.6697 6.36932 30.0277 6.4304 30.3743 6.55256C30.7209 6.67472 31.0319 6.86648 31.3075 7.12784C31.5831 7.3892 31.8004 7.72869 31.9595 8.14631C32.1186 8.56108 32.1981 9.06534 32.1981 9.65909V10.1108H26.995V9.15625H30.9496C30.9496 8.82102 30.8814 8.52415 30.745 8.26562C30.6087 8.00426 30.4169 7.7983 30.1697 7.64773C29.9254 7.49716 29.6385 7.42188 29.3089 7.42188C28.951 7.42188 28.6385 7.50994 28.3714 7.68608C28.1072 7.85937 27.9027 8.08665 27.7578 8.3679C27.6158 8.64631 27.5447 8.94886 27.5447 9.27557V10.0213C27.5447 10.4588 27.6214 10.831 27.7748 11.1378C27.9311 11.4446 28.1484 11.679 28.4268 11.8409C28.7052 12 29.0305 12.0795 29.4027 12.0795C29.6442 12.0795 29.8643 12.0455 30.0632 11.9773C30.2621 11.9062 30.4339 11.8011 30.5788 11.6619C30.7237 11.5227 30.8345 11.3509 30.9112 11.1463L32.1172 11.3636C32.0206 11.7187 31.8473 12.0298 31.5973 12.2969C31.3501 12.5611 31.039 12.767 30.664 12.9148C30.2919 13.0597 29.8672 13.1321 29.3899 13.1321ZM39.0838 6.45455L36.7102 13H35.3466L32.9687 6.45455H34.3366L35.9943 11.4915H36.0625L37.7159 6.45455H39.0838ZM42.9396 13.1321C42.2947 13.1321 41.7393 12.9943 41.2734 12.7188C40.8103 12.4403 40.4524 12.0497 40.1995 11.5469C39.9495 11.0412 39.8245 10.4489 39.8245 9.76989C39.8245 9.09943 39.9495 8.50852 40.1995 7.99716C40.4524 7.4858 40.8046 7.08665 41.2563 6.79972C41.7109 6.51278 42.2421 6.36932 42.8501 6.36932C43.2194 6.36932 43.5774 6.4304 43.924 6.55256C44.2706 6.67472 44.5816 6.86648 44.8572 7.12784C45.1328 7.3892 45.3501 7.72869 45.5092 8.14631C45.6683 8.56108 45.7478 9.06534 45.7478 9.65909V10.1108H40.5447V9.15625H44.4992C44.4992 8.82102 44.4311 8.52415 44.2947 8.26562C44.1583 8.00426 43.9666 7.7983 43.7194 7.64773C43.4751 7.49716 43.1882 7.42188 42.8586 7.42188C42.5007 7.42188 42.1882 7.50994 41.9211 7.68608C41.6569 7.85937 41.4524 8.08665 41.3075 8.3679C41.1654 8.64631 41.0944 8.94886 41.0944 9.27557V10.0213C41.0944 10.4588 41.1711 10.831 41.3245 11.1378C41.4808 11.4446 41.6981 11.679 41.9765 11.8409C42.2549 12 42.5802 12.0795 42.9524 12.0795C43.1938 12.0795 43.414 12.0455 43.6129 11.9773C43.8117 11.9062 43.9836 11.8011 44.1285 11.6619C44.2734 11.5227 44.3842 11.3509 44.4609 11.1463L45.6669 11.3636C45.5703 11.7187 45.397 12.0298 45.147 12.2969C44.8998 12.5611 44.5887 12.767 44.2137 12.9148C43.8416 13.0597 43.4169 13.1321 42.9396 13.1321ZM48.4957 9.11364V13H47.2215V6.45455H48.4445V7.51989H48.5255C48.6761 7.1733 48.9119 6.89489 49.2329 6.68466C49.5568 6.47443 49.9644 6.36932 50.4559 6.36932C50.9019 6.36932 51.2926 6.46307 51.6278 6.65057C51.963 6.83523 52.223 7.1108 52.4076 7.47727C52.5923 7.84375 52.6846 8.29687 52.6846 8.83665V13H51.4105V8.99006C51.4105 8.51562 51.2869 8.14489 51.0397 7.87784C50.7926 7.60795 50.4531 7.47301 50.0212 7.47301C49.7258 7.47301 49.463 7.53693 49.2329 7.66477C49.0056 7.79261 48.8252 7.98011 48.6917 8.22727C48.561 8.47159 48.4957 8.76705 48.4957 9.11364ZM58.5997 10.2855V6.45455H59.8781V13H58.6253V11.8665H58.5571C58.4065 12.2159 58.1651 12.5071 57.8327 12.7401C57.5031 12.9702 57.0926 13.0852 56.6011 13.0852C56.1807 13.0852 55.8085 12.9929 55.4847 12.8082C55.1636 12.6207 54.9108 12.3438 54.7261 11.9773C54.5443 11.6108 54.4534 11.1577 54.4534 10.6179V6.45455H55.7276V10.4645C55.7276 10.9105 55.8511 11.2656 56.0983 11.5298C56.3455 11.794 56.6665 11.9261 57.0614 11.9261C57.3 11.9261 57.5372 11.8665 57.773 11.7472C58.0116 11.6278 58.2091 11.4474 58.3653 11.206C58.5244 10.9645 58.6026 10.6577 58.5997 10.2855ZM64.4712 13.1321C63.8263 13.1321 63.2709 12.9943 62.805 12.7188C62.3419 12.4403 61.9839 12.0497 61.7311 11.5469C61.4811 11.0412 61.3561 10.4489 61.3561 9.76989C61.3561 9.09943 61.4811 8.50852 61.7311 7.99716C61.9839 7.4858 62.3362 7.08665 62.7879 6.79972C63.2425 6.51278 63.7737 6.36932 64.3817 6.36932C64.751 6.36932 65.1089 6.4304 65.4555 6.55256C65.8021 6.67472 66.1132 6.86648 66.3888 7.12784C66.6643 7.3892 66.8817 7.72869 67.0408 8.14631C67.1998 8.56108 67.2794 9.06534 67.2794 9.65909V10.1108H62.0763V9.15625H66.0308C66.0308 8.82102 65.9626 8.52415 65.8263 8.26562C65.6899 8.00426 65.4981 7.7983 65.251 7.64773C65.0067 7.49716 64.7197 7.42188 64.3902 7.42188C64.0322 7.42188 63.7197 7.50994 63.4527 7.68608C63.1885 7.85937 62.9839 8.08665 62.839 8.3679C62.697 8.64631 62.626 8.94886 62.626 9.27557V10.0213C62.626 10.4588 62.7027 10.831 62.8561 11.1378C63.0123 11.4446 63.2297 11.679 63.5081 11.8409C63.7865 12 64.1118 12.0795 64.4839 12.0795C64.7254 12.0795 64.9456 12.0455 65.1444 11.9773C65.3433 11.9062 65.5152 11.8011 65.6601 11.6619C65.805 11.5227 65.9158 11.3509 65.9925 11.1463L67.1984 11.3636C67.1018 11.7187 66.9285 12.0298 66.6785 12.2969C66.4314 12.5611 66.1203 12.767 65.7453 12.9148C65.3731 13.0597 64.9484 13.1321 64.4712 13.1321Z" fill="#667085"/>
<circle cx="90" cy="9" r="6" fill="#E46A11"/>
<path d="M107.719 6.56534C107.673 6.16193 107.486 5.84943 107.156 5.62784C106.827 5.40341 106.412 5.29119 105.912 5.29119C105.554 5.29119 105.244 5.34801 104.983 5.46165C104.722 5.57244 104.518 5.72585 104.374 5.92188C104.232 6.11506 104.161 6.33523 104.161 6.58239C104.161 6.78977 104.209 6.96875 104.305 7.11932C104.405 7.26989 104.534 7.39631 104.693 7.49858C104.855 7.59801 105.028 7.68182 105.213 7.75C105.398 7.81534 105.575 7.86932 105.746 7.91193L106.598 8.13352C106.876 8.2017 107.162 8.29403 107.455 8.41051C107.747 8.52699 108.018 8.6804 108.268 8.87074C108.518 9.06108 108.72 9.29688 108.874 9.57812C109.03 9.85938 109.108 10.196 109.108 10.5881C109.108 11.0824 108.98 11.5213 108.724 11.9048C108.472 12.2884 108.104 12.5909 107.621 12.8125C107.141 13.0341 106.56 13.1449 105.878 13.1449C105.224 13.1449 104.659 13.0412 104.182 12.8338C103.705 12.6264 103.331 12.3324 103.061 11.9517C102.791 11.5682 102.642 11.1136 102.614 10.5881H103.935C103.96 10.9034 104.063 11.1662 104.241 11.3764C104.423 11.5838 104.655 11.7386 104.936 11.8409C105.22 11.9403 105.531 11.9901 105.869 11.9901C106.241 11.9901 106.572 11.9318 106.862 11.8153C107.155 11.696 107.385 11.5312 107.553 11.321C107.72 11.108 107.804 10.8594 107.804 10.5753C107.804 10.3168 107.73 10.1051 107.582 9.94034C107.438 9.77557 107.24 9.6392 106.99 9.53125C106.743 9.4233 106.463 9.32812 106.151 9.24574L105.119 8.96449C104.42 8.77415 103.866 8.49432 103.457 8.125C103.051 7.75568 102.848 7.26705 102.848 6.65909C102.848 6.15625 102.984 5.71733 103.257 5.34233C103.53 4.96733 103.899 4.67614 104.365 4.46875C104.831 4.25852 105.357 4.15341 105.942 4.15341C106.533 4.15341 107.054 4.2571 107.506 4.46449C107.96 4.67188 108.318 4.95739 108.58 5.32102C108.841 5.68182 108.977 6.09659 108.989 6.56534H107.719ZM112.544 13.1449C112.129 13.1449 111.754 13.0682 111.419 12.9148C111.084 12.7585 110.818 12.5327 110.622 12.2372C110.429 11.9418 110.332 11.5795 110.332 11.1506C110.332 10.7812 110.403 10.4773 110.545 10.2386C110.687 10 110.879 9.81108 111.121 9.67188C111.362 9.53267 111.632 9.42756 111.93 9.35653C112.229 9.28551 112.533 9.23153 112.842 9.1946C113.234 9.14915 113.553 9.11222 113.797 9.08381C114.041 9.05256 114.219 9.00284 114.33 8.93466C114.44 8.86648 114.496 8.75568 114.496 8.60227V8.57244C114.496 8.20028 114.391 7.91193 114.18 7.70739C113.973 7.50284 113.663 7.40057 113.251 7.40057C112.822 7.40057 112.484 7.49574 112.237 7.68608C111.993 7.87358 111.824 8.08239 111.73 8.3125L110.533 8.03977C110.675 7.64205 110.882 7.32102 111.155 7.0767C111.43 6.82955 111.747 6.65057 112.105 6.53977C112.463 6.42614 112.839 6.36932 113.234 6.36932C113.496 6.36932 113.773 6.40057 114.065 6.46307C114.361 6.52273 114.636 6.63352 114.892 6.79545C115.151 6.95739 115.362 7.18892 115.527 7.49006C115.692 7.78835 115.774 8.17614 115.774 8.65341V13H114.53V12.1051H114.479C114.396 12.2699 114.273 12.4318 114.108 12.5909C113.943 12.75 113.732 12.8821 113.473 12.9872C113.214 13.0923 112.905 13.1449 112.544 13.1449ZM112.821 12.1222C113.173 12.1222 113.474 12.0526 113.724 11.9134C113.977 11.7741 114.169 11.5923 114.3 11.3679C114.433 11.1406 114.5 10.8977 114.5 10.6392V9.79545C114.455 9.84091 114.366 9.88352 114.236 9.9233C114.108 9.96023 113.962 9.9929 113.797 10.0213C113.632 10.0469 113.472 10.071 113.315 10.0938C113.159 10.1136 113.028 10.1307 112.923 10.1449C112.676 10.1761 112.45 10.2287 112.246 10.3026C112.044 10.3764 111.882 10.483 111.76 10.6222C111.641 10.7585 111.581 10.9403 111.581 11.1676C111.581 11.483 111.697 11.7216 111.93 11.8835C112.163 12.0426 112.46 12.1222 112.821 12.1222ZM118.805 4.27273V13H117.531V4.27273H118.805ZM123.401 13.1321C122.756 13.1321 122.2 12.9943 121.734 12.7188C121.271 12.4403 120.913 12.0497 120.66 11.5469C120.41 11.0412 120.285 10.4489 120.285 9.76989C120.285 9.09943 120.41 8.50852 120.66 7.99716C120.913 7.4858 121.266 7.08665 121.717 6.79972C122.172 6.51278 122.703 6.36932 123.311 6.36932C123.68 6.36932 124.038 6.4304 124.385 6.55256C124.731 6.67472 125.043 6.86648 125.318 7.12784C125.594 7.3892 125.811 7.72869 125.97 8.14631C126.129 8.56108 126.209 9.06534 126.209 9.65909V10.1108H121.006V9.15625H124.96C124.96 8.82102 124.892 8.52415 124.756 8.26562C124.619 8.00426 124.428 7.7983 124.18 7.64773C123.936 7.49716 123.649 7.42188 123.32 7.42188C122.962 7.42188 122.649 7.50994 122.382 7.68608C122.118 7.85937 121.913 8.08665 121.768 8.3679C121.626 8.64631 121.555 8.94886 121.555 9.27557V10.0213C121.555 10.4588 121.632 10.831 121.785 11.1378C121.942 11.4446 122.159 11.679 122.437 11.8409C122.716 12 123.041 12.0795 123.413 12.0795C123.655 12.0795 123.875 12.0455 124.074 11.9773C124.273 11.9062 124.445 11.8011 124.589 11.6619C124.734 11.5227 124.845 11.3509 124.922 11.1463L126.128 11.3636C126.031 11.7187 125.858 12.0298 125.608 12.2969C125.361 12.5611 125.05 12.767 124.675 12.9148C124.303 13.0597 123.878 13.1321 123.401 13.1321ZM132.587 8.05256L131.432 8.2571C131.384 8.10937 131.307 7.96875 131.202 7.83523C131.1 7.7017 130.961 7.59233 130.785 7.5071C130.609 7.42187 130.388 7.37926 130.124 7.37926C129.763 7.37926 129.462 7.46023 129.221 7.62216C128.979 7.78125 128.859 7.98722 128.859 8.24006C128.859 8.45881 128.94 8.63494 129.102 8.76847C129.263 8.90199 129.525 9.01136 129.886 9.09659L130.925 9.33523C131.528 9.47443 131.977 9.68892 132.272 9.97869C132.567 10.2685 132.715 10.6449 132.715 11.108C132.715 11.5 132.602 11.8494 132.374 12.1562C132.15 12.4602 131.836 12.6989 131.432 12.8722C131.032 13.0455 130.567 13.1321 130.039 13.1321C129.306 13.1321 128.708 12.9759 128.245 12.6634C127.782 12.348 127.498 11.9006 127.393 11.321L128.624 11.1335C128.701 11.4545 128.859 11.6974 129.097 11.8622C129.336 12.0241 129.647 12.1051 130.03 12.1051C130.448 12.1051 130.782 12.0185 131.032 11.8452C131.282 11.669 131.407 11.4545 131.407 11.2017C131.407 10.9972 131.33 10.8253 131.177 10.6861C131.026 10.5469 130.795 10.4418 130.482 10.3707L129.374 10.1278C128.763 9.98864 128.312 9.76705 128.019 9.46307C127.729 9.15909 127.584 8.77415 127.584 8.30824C127.584 7.92187 127.692 7.58381 127.908 7.29403C128.124 7.00426 128.423 6.77841 128.803 6.61648C129.184 6.4517 129.62 6.36932 130.111 6.36932C130.819 6.36932 131.376 6.52273 131.782 6.82955C132.188 7.13352 132.457 7.54119 132.587 8.05256Z" fill="#667085"/>
</svg>
