<svg width="40" height="40" viewBox="0 0 40 40" fill="none" xmlns="http://www.w3.org/2000/svg">
<rect x="2" y="2" width="36" height="36" rx="18" fill="#DEDEFA"/>
<rect x="2" y="2" width="36" height="36" rx="18" stroke="#EFEFFD" stroke-width="4"/>
<path d="M23.9666 18.4475C24.3519 18.0517 24.3433 17.4186 23.9475 17.0334C23.5517 16.6482 22.9186 16.6568 22.5334 17.0525L19.2737 20.4017L17.8755 19.2809C17.4446 18.9354 16.8152 19.0047 16.4698 19.4356C16.1244 19.8666 16.1936 20.4959 16.6246 20.8414L19.0857 22.8143C19.2867 22.9754 19.5771 22.9575 19.7567 22.7729L23.9666 18.4475Z" fill="#5C59E8"/>
<path fill-rule="evenodd" clip-rule="evenodd" d="M18.6094 10.3453C19.3847 9.5952 20.6152 9.5952 21.3905 10.3453L22.7193 11.6307L24.5498 11.3718C25.618 11.2207 26.6135 11.944 26.7999 13.0065L27.1193 14.8275L28.7524 15.694C29.7054 16.1996 30.0856 17.3699 29.6119 18.3391L28.7999 20L29.6119 21.661C30.0856 22.6301 29.7054 23.8004 28.7524 24.306L27.1193 25.1725L26.7999 26.9935C26.6135 28.056 25.618 28.7793 24.5498 28.6282L22.7193 28.3693L21.3905 29.6547C20.6152 30.4048 19.3847 30.4048 18.6094 29.6547L17.2806 28.3693L15.45 28.6282C14.3819 28.7793 13.3864 28.056 13.2 26.9935L12.8806 25.1725L11.2475 24.306C10.2945 23.8004 9.91426 22.6301 10.388 21.661L11.1999 20L10.388 18.3391C9.91426 17.3699 10.2945 16.1996 11.2475 15.694L12.8806 14.8275L13.2 13.0065C13.3864 11.944 14.3819 11.2207 15.45 11.3718L17.2806 11.6307L18.6094 10.3453ZM19.9999 11.7827L22.0314 13.7479L24.8299 13.3521L25.3183 16.136L27.8151 17.4607L26.5738 20L27.8151 22.5393L25.3183 23.864L24.8299 26.6479L22.0314 26.2521L19.9999 28.2173L17.9685 26.2521L15.1699 26.6479L14.6816 23.864L12.1848 22.5393L13.4261 20L12.1848 17.4607L14.6816 16.136L15.1699 13.3521L17.9685 13.7479L19.9999 11.7827Z" fill="#5C59E8"/>
</svg>
