<svg width="40" height="40" viewBox="0 0 40 40" fill="none" xmlns="http://www.w3.org/2000/svg">
<rect x="2" y="2" width="36" height="36" rx="18" fill="#E0E2E7"/>
<rect x="2" y="2" width="36" height="36" rx="18" stroke="#F0F1F3" stroke-width="4"/>
<path fill-rule="evenodd" clip-rule="evenodd" d="M24 18C24 20.2091 22.2091 22 20 22C17.7909 22 16 20.2091 16 18C16 15.7909 17.7909 14 20 14C22.2091 14 24 15.7909 24 18ZM22 18C22 19.1046 21.1046 20 20 20C18.8954 20 18 19.1046 18 18C18 16.8954 18.8954 16 20 16C21.1046 16 22 16.8954 22 18Z" fill="#667085"/>
<path fill-rule="evenodd" clip-rule="evenodd" d="M28 18C27.9999 24.8707 22.0992 28.791 20.4332 29.7609C20.1612 29.9192 19.8388 29.9192 19.5668 29.7609C17.9008 28.791 12 24.8707 12 18C12 14 15 10 20 10C25 10 28 14 28 18ZM14 18C14 14.9372 16.2648 12 20 12C23.7352 12 26 14.9372 26 18C26 21.2825 24.3677 23.8038 22.5857 25.5858C21.7002 26.4714 20.8093 27.1401 20.1406 27.5859C20.0924 27.618 20.0455 27.6489 20 27.6785C19.9544 27.6489 19.9075 27.618 19.8594 27.5859C19.1907 27.1401 18.2998 26.4714 17.4142 25.5858C15.6322 23.8038 14 21.2825 14 18Z" fill="#667085"/>
</svg>
