<svg width="40" height="40" viewBox="0 0 40 40" fill="none" xmlns="http://www.w3.org/2000/svg">
<rect x="2" y="2" width="36" height="36" rx="18" fill="#E0E2E7"/>
<rect x="2" y="2" width="36" height="36" rx="18" stroke="#F0F1F3" stroke-width="4"/>
<path fill-rule="evenodd" clip-rule="evenodd" d="M24.5 14.5C24.5 16.9853 22.4853 19 20 19C17.5147 19 15.5 16.9853 15.5 14.5C15.5 12.0147 17.5147 10 20 10C22.4853 10 24.5 12.0147 24.5 14.5ZM22.5 14.5C22.5 15.8807 21.3807 17 20 17C18.6193 17 17.5 15.8807 17.5 14.5C17.5 13.1193 18.6193 12 20 12C21.3807 12 22.5 13.1193 22.5 14.5Z" fill="#667085"/>
<path fill-rule="evenodd" clip-rule="evenodd" d="M11 26.9231C11 23.0996 14.0996 20 17.9231 20H22.0769C25.9004 20 29 23.0996 29 26.9231C29 28.0701 28.0701 29 26.9231 29H13.0769C11.9299 29 11 28.0701 11 26.9231ZM13 26.9231C13 24.2041 15.2041 22 17.9231 22H22.0769C24.7959 22 27 24.2041 27 26.9231C27 26.9656 26.9656 27 26.9231 27H13.0769C13.0344 27 13 26.9656 13 26.9231Z" fill="#667085"/>
</svg>
