<svg width="40" height="40" viewBox="0 0 40 40" fill="none" xmlns="http://www.w3.org/2000/svg">
<rect x="2" y="2" width="36" height="36" rx="18" fill="#E0E2E7"/>
<rect x="2" y="2" width="36" height="36" rx="18" stroke="#F0F1F3" stroke-width="4"/>
<path d="M14 24C14 23.4477 14.4477 23 15 23H17C17.5523 23 18 23.4477 18 24C18 24.5523 17.5523 25 17 25H15C14.4477 25 14 24.5523 14 24Z" fill="#667085"/>
<path d="M15 19C14.4477 19 14 19.4477 14 20C14 20.5523 14.4477 21 15 21H21C21.5523 21 22 20.5523 22 20C22 19.4477 21.5523 19 21 19H15Z" fill="#667085"/>
<path d="M14 16C14 15.4477 14.4477 15 15 15H21C21.5523 15 22 15.4477 22 16C22 16.5523 21.5523 17 21 17H15C14.4477 17 14 16.5523 14 16Z" fill="#667085"/>
<path fill-rule="evenodd" clip-rule="evenodd" d="M10 15C10 12.7909 11.7909 11 14 11H22C24.2091 11 26 12.7909 26 15V18H27C28.6569 18 30 19.3431 30 21V26C30 27.6569 28.6569 29 27 29H14C11.7909 29 10 27.2091 10 25V15ZM27 27C27.5523 27 28 26.5523 28 26V21C28 20.4477 27.5523 20 27 20H26V26C26 26.5523 26.4477 27 27 27ZM24 26C24 26.3506 24.0602 26.6872 24.1707 27H14C12.8954 27 12 26.1046 12 25V15C12 13.8954 12.8954 13 14 13H22C23.1046 13 24 13.8954 24 15V26Z" fill="#667085"/>
</svg>
