<svg width="40" height="40" viewBox="0 0 40 40" fill="none" xmlns="http://www.w3.org/2000/svg">
<rect x="2" y="2" width="36" height="36" rx="18" fill="#DEDEFA"/>
<rect x="2" y="2" width="36" height="36" rx="18" stroke="#EFEFFD" stroke-width="4"/>
<path d="M14.638 12.1223C14.4569 11.1806 13.6329 10.5 12.674 10.5H11C10.4477 10.5 10 10.9477 10 11.5C10 12.0523 10.4477 12.5 11 12.5L12.674 12.5L14.55 22.2554C14.9122 24.1388 16.5602 25.5 18.478 25.5H24.6873C26.5044 25.5 28.0932 24.2752 28.5556 22.518L29.8068 17.7635C30.3074 15.8612 28.8726 14 26.9056 14H25.5C24.9477 14 24.5 14.4477 24.5 15C24.5 15.5523 24.9477 16 25.5 16H26.9056C27.5613 16 28.0395 16.6204 27.8727 17.2545L26.6215 22.009C26.3903 22.8876 25.5959 23.5 24.6873 23.5H18.478C17.5191 23.5 16.6951 22.8194 16.514 21.8777L15.3837 16H18C18.5523 16 19 15.5523 19 15C19 14.4477 18.5523 14 18 14H14.9991L14.638 12.1223Z" fill="#5C59E8"/>
<path d="M16.75 29.5C15.9216 29.5 15.25 28.8284 15.25 28C15.25 27.1716 15.9216 26.5 16.75 26.5C17.5784 26.5 18.25 27.1716 18.25 28C18.25 28.8284 17.5784 29.5 16.75 29.5Z" fill="#5C59E8"/>
<path d="M25.5 29.5C24.6716 29.5 24 28.8284 24 28C24 27.1716 24.6716 26.5 25.5 26.5C26.3284 26.5 27 27.1716 27 28C27 28.8284 26.3284 29.5 25.5 29.5Z" fill="#5C59E8"/>
<path d="M18.0429 17.7929C18.4334 17.4024 19.0666 17.4024 19.4571 17.7929L20.75 19.0858V12C20.75 11.4477 21.1977 11 21.75 11C22.3023 11 22.75 11.4477 22.75 12V19.0858L24.0429 17.7929C24.4334 17.4024 25.0666 17.4024 25.4571 17.7929C25.8476 18.1834 25.8476 18.8166 25.4571 19.2071L22.1036 22.5607C21.9083 22.7559 21.5917 22.7559 21.3964 22.5607L18.0429 19.2071C17.6524 18.8166 17.6524 18.1834 18.0429 17.7929Z" fill="#5C59E8"/>
</svg>
