<svg width="40" height="40" viewBox="0 0 40 40" fill="none" xmlns="http://www.w3.org/2000/svg">
<rect x="2" y="2" width="36" height="36" rx="18" fill="#E0E2E7"/>
<rect x="2" y="2" width="36" height="36" rx="18" stroke="#F0F1F3" stroke-width="4"/>
<path d="M13 23C13 22.4477 13.4477 22 14 22H18C18.5523 22 19 22.4477 19 23C19 23.5523 18.5523 24 18 24H14C13.4477 24 13 23.5523 13 23Z" fill="#667085"/>
<path fill-rule="evenodd" clip-rule="evenodd" d="M10 15C10 13.3431 11.3431 12 13 12H27C28.6569 12 30 13.3431 30 15V25C30 26.6569 28.6569 28 27 28H13C11.3431 28 10 26.6569 10 25V15ZM13 14H27C27.5523 14 28 14.4477 28 15V16H12V15C12 14.4477 12.4477 14 13 14ZM28 18V25C28 25.5523 27.5523 26 27 26H13C12.4477 26 12 25.5523 12 25V18H28Z" fill="#667085"/>
</svg>
