<svg width="40" height="40" viewBox="0 0 40 40" fill="none" xmlns="http://www.w3.org/2000/svg">
<rect x="2" y="2" width="36" height="36" rx="18" fill="#DEDEFA"/>
<rect x="2" y="2" width="36" height="36" rx="18" stroke="#EFEFFD" stroke-width="4"/>
<path d="M13.9359 16.5007C15.1477 14.4058 17.4103 13 20 13C23.5525 13 26.4869 15.6463 26.9395 19.0752L26.2071 18.3429C25.8166 17.9523 25.1834 17.9523 24.7929 18.3429C24.4024 18.7334 24.4024 19.3665 24.7929 19.7571L27.6464 22.6106C27.8417 22.8059 28.1583 22.8059 28.3536 22.6106L31.2071 19.7571C31.5976 19.3665 31.5976 18.7334 31.2071 18.3429C30.8166 17.9523 30.1834 17.9523 29.7929 18.3429L28.9625 19.1732C28.5451 14.5902 24.6918 11 20 11C16.6675 11 13.7593 12.8118 12.2047 15.4993C11.9281 15.9773 12.0915 16.5891 12.5695 16.8656C13.0476 17.1421 13.6593 16.9788 13.9359 16.5007Z" fill="#5C59E8"/>
<path d="M13.7929 22.2571C14.1834 22.6476 14.8166 22.6476 15.2071 22.2571C15.5976 21.8666 15.5976 21.2334 15.2071 20.8429L12.3536 17.9894C12.1583 17.7941 11.8417 17.7941 11.6464 17.9894L8.79289 20.8429C8.40237 21.2334 8.40237 21.8666 8.79289 22.2571C9.18342 22.6476 9.81658 22.6476 10.2071 22.2571L11.1024 21.3619C11.7588 25.6862 15.4924 29 20 29C22.8426 29 25.3779 27.681 27.0256 25.6255C27.3711 25.1946 27.3018 24.5652 26.8708 24.2198C26.4399 23.8743 25.8106 23.9436 25.4651 24.3745C24.1806 25.9769 22.2101 27 20 27C16.707 27 13.9451 24.7262 13.1987 21.663L13.7929 22.2571Z" fill="#5C59E8"/>
</svg>
