<svg width="20" height="20" viewBox="0 0 20 20" fill="none" xmlns="http://www.w3.org/2000/svg">
<path d="M4.99996 13.3333C4.99996 12.8731 5.37306 12.5 5.83329 12.5H7.49996C7.9602 12.5 8.33329 12.8731 8.33329 13.3333C8.33329 13.7936 7.9602 14.1667 7.49996 14.1667H5.83329C5.37306 14.1667 4.99996 13.7936 4.99996 13.3333Z" fill="white"/>
<path d="M5.83329 9.16667C5.37306 9.16667 4.99996 9.53976 4.99996 10C4.99996 10.4602 5.37306 10.8333 5.83329 10.8333H10.8333C11.2935 10.8333 11.6666 10.4602 11.6666 10C11.6666 9.53976 11.2935 9.16667 10.8333 9.16667H5.83329Z" fill="white"/>
<path d="M4.99996 6.66667C4.99996 6.20643 5.37306 5.83333 5.83329 5.83333H10.8333C11.2935 5.83333 11.6666 6.20643 11.6666 6.66667C11.6666 7.1269 11.2935 7.5 10.8333 7.5H5.83329C5.37306 7.5 4.99996 7.1269 4.99996 6.66667Z" fill="white"/>
<path fill-rule="evenodd" clip-rule="evenodd" d="M1.66663 5.83333C1.66663 3.99238 3.15901 2.5 4.99996 2.5H11.6666C13.5076 2.5 15 3.99238 15 5.83333V8.33333H15.8333C17.214 8.33333 18.3333 9.45262 18.3333 10.8333V15C18.3333 16.3807 17.214 17.5 15.8333 17.5H4.99996C3.15901 17.5 1.66663 16.0076 1.66663 14.1667V5.83333ZM15.8333 15.8333C16.2935 15.8333 16.6666 15.4602 16.6666 15V10.8333C16.6666 10.3731 16.2935 10 15.8333 10H15V15C15 15.4602 15.3731 15.8333 15.8333 15.8333ZM13.3333 15C13.3333 15.2922 13.3834 15.5727 13.4755 15.8333H4.99996C4.07948 15.8333 3.33329 15.0871 3.33329 14.1667V5.83333C3.33329 4.91286 4.07948 4.16667 4.99996 4.16667H11.6666C12.5871 4.16667 13.3333 4.91286 13.3333 5.83333V15Z" fill="white"/>
</svg>
