<svg width="40" height="40" viewBox="0 0 40 40" fill="none" xmlns="http://www.w3.org/2000/svg">
<rect x="2" y="2" width="36" height="36" rx="18" fill="#E0E2E7"/>
<rect x="2" y="2" width="36" height="36" rx="18" stroke="#F0F1F3" stroke-width="4"/>
<path fill-rule="evenodd" clip-rule="evenodd" d="M13 13H21C21.5523 13 22 13.4477 22 14V16V23H15.5H13C12.4477 23 12 22.5523 12 22V14C12 13.4477 12.4477 13 13 13ZM22 25H18.3293C18.4398 25.3128 18.5 25.6494 18.5 26C18.5 27.6569 17.1569 29 15.5 29C13.8431 29 12.5 27.6569 12.5 26C12.5 25.6429 12.5624 25.3004 12.6768 24.9828C11.172 24.8216 10 23.5477 10 22V14C10 12.3431 11.3431 11 13 11H21C22.6569 11 24 12.3431 24 14V16H25.6459C26.7822 16 27.821 16.642 28.3292 17.6584L29.7889 20.5777C29.9277 20.8554 30 21.1616 30 21.4721V23C30 23.8316 29.4924 24.5447 28.7702 24.8463C28.9182 25.2015 29 25.5912 29 26C29 27.6569 27.6569 29 26 29C24.3431 29 23 27.6569 23 26C23 25.6494 23.0602 25.3128 23.1707 25H22ZM26 23H28V21.4721L26.5403 18.5528C26.3709 18.214 26.0247 18 25.6459 18H24V23H26ZM26 25C25.4477 25 25 25.4477 25 26C25 26.5523 25.4477 27 26 27C26.5523 27 27 26.5523 27 26C27 25.4477 26.5523 25 26 25ZM14.5 26C14.5 25.4477 14.9477 25 15.5 25C16.0523 25 16.5 25.4477 16.5 26C16.5 26.5523 16.0523 27 15.5 27C14.9477 27 14.5 26.5523 14.5 26Z" fill="#667085"/>
</svg>
