<svg width="40" height="40" viewBox="0 0 40 40" fill="none" xmlns="http://www.w3.org/2000/svg">
<rect x="2" y="2" width="36" height="36" rx="18" fill="#E0E2E7"/>
<rect x="2" y="2" width="36" height="36" rx="18" stroke="#F0F1F3" stroke-width="4"/>
<path d="M21 24.3681C21.3069 24.0934 21.5 23.6942 21.5 23.25C21.5 22.4216 20.8284 21.75 20 21.75C19.1716 21.75 18.5 22.4216 18.5 23.25C18.5 23.6942 18.6931 24.0934 19 24.3681V25.25C19 25.8023 19.4477 26.25 20 26.25C20.5523 26.25 21 25.8023 21 25.25V24.3681Z" fill="#667085"/>
<path fill-rule="evenodd" clip-rule="evenodd" d="M14 18V16C14 12.6863 16.6863 10 20 10C23.3137 10 26 12.6863 26 16V18C27.6569 18 29 19.3431 29 21V27C29 28.6569 27.6569 30 26 30H14C12.3431 30 11 28.6569 11 27V21C11 19.3431 12.3431 18 14 18ZM24 16V18H16V16C16 13.7909 17.7909 12 20 12C22.2091 12 24 13.7909 24 16ZM14 20C13.4477 20 13 20.4477 13 21V27C13 27.5523 13.4477 28 14 28H26C26.5523 28 27 27.5523 27 27V21C27 20.4477 26.5523 20 26 20H14Z" fill="#667085"/>
</svg>
