<svg width="40" height="40" viewBox="0 0 40 40" fill="none" xmlns="http://www.w3.org/2000/svg">
<rect x="2" y="2" width="36" height="36" rx="18" fill="#E0E2E7"/>
<rect x="2" y="2" width="36" height="36" rx="18" stroke="#F0F1F3" stroke-width="4"/>
<g clip-path="url(#clip0_47_5459)">
<path fill-rule="evenodd" clip-rule="evenodd" d="M27.9731 26.6595L25.0233 23.7097L23.0771 26.2869L22.37 26.0078L22.3655 26.006L22.3567 26.0025L22.3266 25.9903C22.301 25.9799 22.2647 25.965 22.2186 25.9456C22.1266 25.907 21.9954 25.8506 21.8334 25.7776C21.5097 25.6317 21.0601 25.4182 20.5508 25.1451C19.5464 24.6065 18.2501 23.8047 17.2412 22.7958C16.2322 21.7869 15.4304 20.4904 14.8917 19.486C14.6186 18.9767 14.405 18.5271 14.2592 18.2034C14.1861 18.0413 14.1297 17.9101 14.0911 17.8181C14.0717 17.772 14.0568 17.7357 14.0464 17.7102L14.0342 17.68L14.0307 17.6712L14.0292 17.6674L13.7497 16.9596L16.327 15.0134L13.3772 12.0636C12.7923 13.0194 12.0398 14.6448 12.035 16.6657C12.03 18.7616 12.828 21.4138 15.7255 24.3114C18.6231 27.209 21.2754 28.0069 23.3711 28.0018C25.392 27.997 27.0174 27.2444 27.9731 26.6595ZM16.1926 17.621L17.5323 16.6094C18.5014 15.8776 18.6 14.4579 17.7412 13.5992L14.7051 10.5631C13.9156 9.7735 12.4906 9.73464 11.787 10.8347C11.0749 11.9482 10.0413 14.0138 10.035 16.661C10.0286 19.3443 11.0786 22.4929 14.3113 25.7256C17.5441 28.9584 20.6927 30.0083 23.3759 30.0018C26.0231 29.9955 28.0887 28.9618 29.2021 28.2497C30.3021 27.5461 30.2632 26.1211 29.4737 25.3316L26.4375 22.2954C25.5788 21.4367 24.1591 21.5352 23.4272 22.5044L22.4156 23.8441C22.1569 23.7229 21.8416 23.5678 21.496 23.3825C20.5596 22.8804 19.4615 22.1877 18.6554 21.3816C17.8492 20.5754 17.1565 19.4772 16.6543 18.5408C16.4689 18.1952 16.3138 17.8798 16.1926 17.621Z" fill="#667085"/>
</g>
<defs>
<clipPath id="clip0_47_5459">
<rect width="24" height="24" fill="white" transform="translate(8 8)"/>
</clipPath>
</defs>
</svg>
