<svg width="40" height="40" viewBox="0 0 40 40" fill="none" xmlns="http://www.w3.org/2000/svg">
<path fill-rule="evenodd" clip-rule="evenodd" d="M17 11C17 10.4477 16.5523 10 16 10C15.4477 10 15 10.4477 15 11H14C12.3431 11 11 12.3431 11 14V27C11 28.6569 12.3431 30 14 30H26C27.6569 30 29 28.6569 29 27V14C29 12.3431 27.6569 11 26 11H25C25 10.4477 24.5523 10 24 10C23.4477 10 23 10.4477 23 11H17ZM27 15V14C27 13.4477 26.5523 13 26 13H25C25 13.5523 24.5523 14 24 14C23.4477 14 23 13.5523 23 13H17C17 13.5523 16.5523 14 16 14C15.4477 14 15 13.5523 15 13H14C13.4477 13 13 13.4477 13 14V15H27ZM13 17V27C13 27.5523 13.4477 28 14 28H26C26.5523 28 27 27.5523 27 27V17H13Z" fill="#667085"/>
</svg>
