<svg width="24" height="24" viewBox="0 0 24 24" fill="none" xmlns="http://www.w3.org/2000/svg">
<path fill-rule="evenodd" clip-rule="evenodd" d="M2 7C2 5.34315 3.34315 4 5 4H19C20.6569 4 22 5.34315 22 7V17C22 18.6569 20.6569 20 19 20H5C3.34315 20 2 18.6569 2 17V7ZM18.3334 6H5.6667L11.4 10.3C11.7556 10.5667 12.2445 10.5667 12.6 10.3L18.3334 6ZM4 7.24998V17C4 17.5523 4.44772 18 5 18H19C19.5523 18 20 17.5523 20 17V7.25002L13.8 11.9C12.7334 12.7 11.2667 12.7 10.2 11.9L4 7.24998Z" fill="#667085"/>
</svg>
