<svg width="44" height="44" viewBox="0 0 44 44" fill="none" xmlns="http://www.w3.org/2000/svg">
<path fill-rule="evenodd" clip-rule="evenodd" d="M10 19C10 17.3431 11.3431 16 13 16H27C28.6569 16 30 17.3431 30 19V29C30 30.6569 28.6569 32 27 32H13C11.3431 32 10 30.6569 10 29V19ZM26.3334 18H13.6667L19.4 22.3C19.7556 22.5667 20.2445 22.5667 20.6 22.3L26.3334 18ZM12 19.25V29C12 29.5523 12.4477 30 13 30H27C27.5523 30 28 29.5523 28 29V19.25L21.8 23.9C20.7334 24.7 19.2667 24.7 18.2 23.9L12 19.25Z" fill="#667085"/>
<rect x="18" width="26" height="18" rx="9" fill="#F04438"/>
<path d="M27.3097 13.0994C26.9616 13.0971 26.6219 13.0367 26.2905 12.9183C25.959 12.7976 25.6607 12.6023 25.3956 12.3324C25.1304 12.0601 24.9197 11.6991 24.7635 11.2493C24.6072 10.7971 24.5303 10.2372 24.5327 9.5696C24.5327 8.94697 24.599 8.39181 24.7315 7.90412C24.8641 7.41643 25.0547 7.0045 25.3033 6.66832C25.5518 6.32978 25.8513 6.07173 26.2017 5.89418C26.5545 5.71662 26.9486 5.62784 27.3842 5.62784C27.8411 5.62784 28.246 5.7178 28.5987 5.89773C28.9538 6.07765 29.2403 6.32386 29.4581 6.63636C29.6759 6.9465 29.8108 7.29688 29.8629 7.6875H28.5668C28.5005 7.40814 28.3643 7.18561 28.1584 7.01989C27.9548 6.8518 27.6967 6.76776 27.3842 6.76776C26.88 6.76776 26.4917 6.98674 26.2195 7.42472C25.9496 7.86269 25.8134 8.46402 25.8111 9.22869H25.8608C25.9768 9.02036 26.1271 8.84162 26.3118 8.69247C26.4964 8.54332 26.7048 8.4285 26.9368 8.34801C27.1712 8.26515 27.4186 8.22372 27.679 8.22372C28.1051 8.22372 28.4875 8.32552 28.826 8.52912C29.1669 8.73272 29.4368 9.01326 29.6357 9.37074C29.8345 9.72585 29.9328 10.133 29.9304 10.5923C29.9328 11.0705 29.8239 11.5002 29.6037 11.8814C29.3835 12.2602 29.0769 12.5585 28.6839 12.7763C28.291 12.9941 27.8329 13.1018 27.3097 13.0994ZM27.3026 12.0341C27.5606 12.0341 27.7914 11.9714 27.995 11.8459C28.1986 11.7204 28.3596 11.5511 28.478 11.3381C28.5964 11.125 28.6544 10.8859 28.652 10.6207C28.6544 10.3603 28.5975 10.1248 28.4815 9.91406C28.3679 9.70336 28.2105 9.53646 28.0092 9.41335C27.808 9.29025 27.5784 9.22869 27.3203 9.22869C27.1286 9.22869 26.9498 9.26539 26.7841 9.33878C26.6184 9.41217 26.474 9.51397 26.3509 9.64418C26.2277 9.77202 26.1307 9.92116 26.0597 10.0916C25.991 10.2597 25.9555 10.4396 25.9531 10.6314C25.9555 10.8847 26.0147 11.1179 26.1307 11.331C26.2467 11.544 26.4065 11.7145 26.6101 11.8423C26.8137 11.9702 27.0445 12.0341 27.3026 12.0341ZM31.0493 11.6506V10.603L34.1352 5.72727H35.0088V7.21875H34.4761L32.3987 10.5107V10.5675H36.7063V11.6506H31.0493ZM34.5188 13V11.331L34.533 10.8622V5.72727H35.7759V13H34.5188Z" fill="white"/>
</svg>
