<svg width="34" height="34" viewBox="0 0 34 34" fill="none" xmlns="http://www.w3.org/2000/svg">
<path d="M17 12.75C14.6528 12.75 12.75 14.6528 12.75 17V29.75C12.75 32.0972 14.6528 34 17 34C19.3472 34 21.25 32.0972 21.25 29.75V21.25H29.75C32.0972 21.25 34 19.3472 34 17C34 14.6528 32.0972 12.75 29.75 12.75H17Z" fill="#7D7AED"/>
<path d="M17 0C14.6528 0 12.75 1.90279 12.75 4.25V12.75H4.25C1.90279 12.75 0 14.6528 0 17C0 19.3472 1.90279 21.25 4.25 21.25H17C19.3472 21.25 21.25 19.3472 21.25 17V4.25C21.25 1.90279 19.3472 0 17 0Z" fill="#42C1E9"/>
<path d="M21.25 12.75H17C14.6528 12.75 12.75 14.6528 12.75 17V21.25H17C19.3472 21.25 21.25 19.3472 21.25 17V12.75Z" fill="#5C59E8"/>
</svg>
