<svg width="44" height="44" viewBox="0 0 44 44" fill="none" xmlns="http://www.w3.org/2000/svg">
<path fill-rule="evenodd" clip-rule="evenodd" d="M21 15C21 14.4477 20.5523 14 20 14C19.4477 14 19 14.4477 19 15V15.5709C15.6077 16.0561 13 18.9735 13 22.5V27.5L12.2824 28.7558C11.711 29.7558 12.433 31 13.5847 31H16.126C16.5701 32.7252 18.1362 34 20 34C21.8638 34 23.4299 32.7252 23.874 31H26.4152C27.5669 31 28.289 29.7558 27.7176 28.7558L27 27.5V22.5C27 18.9735 24.3923 16.0561 21 15.5709V15ZM15 28.0311L14.4463 29H25.5536L25 28.0311V22.5C25 19.7386 22.7614 17.5 20 17.5C17.2385 17.5 15 19.7386 15 22.5V28.0311ZM20 32C19.2597 32 18.6134 31.5978 18.2676 31H21.7324C21.3866 31.5978 20.7403 32 20 32Z" fill="#667085"/>
<rect x="25" width="19" height="18" rx="9" fill="#F04438"/>
<path d="M34.2564 13.0994C33.745 13.0994 33.2905 13.0118 32.8928 12.8366C32.4974 12.6615 32.1849 12.4176 31.9553 12.1051C31.7256 11.7926 31.6037 11.4316 31.5895 11.022H32.9247C32.9366 11.2185 33.0017 11.3902 33.12 11.5369C33.2384 11.6813 33.3958 11.7938 33.5923 11.8743C33.7888 11.9548 34.009 11.995 34.2528 11.995C34.5133 11.995 34.7441 11.95 34.9453 11.8601C35.1465 11.7678 35.304 11.6399 35.4176 11.4766C35.5313 11.3132 35.5869 11.125 35.5845 10.9119C35.5869 10.6918 35.5301 10.4976 35.4141 10.3295C35.2981 10.1615 35.13 10.0301 34.9098 9.93537C34.692 9.84067 34.4292 9.79332 34.1214 9.79332H33.4787V8.7777H34.1214C34.3748 8.7777 34.5961 8.7339 34.7855 8.64631C34.9773 8.55871 35.1276 8.43561 35.2365 8.27699C35.3454 8.116 35.3987 7.93016 35.3963 7.71946C35.3987 7.51349 35.3525 7.33475 35.2578 7.18324C35.1655 7.02936 35.0341 6.9098 34.8636 6.82457C34.6955 6.73935 34.4979 6.69673 34.2706 6.69673C34.0481 6.69673 33.8421 6.73698 33.6527 6.81747C33.4633 6.89796 33.3106 7.01278 33.1946 7.16193C33.0786 7.30871 33.017 7.4839 33.0099 7.6875H31.7422C31.7517 7.2803 31.8688 6.92282 32.0938 6.61506C32.321 6.30492 32.6241 6.06345 33.0028 5.89062C33.3816 5.71544 33.8066 5.62784 34.2777 5.62784C34.763 5.62784 35.1844 5.71899 35.5419 5.90128C35.9018 6.0812 36.1799 6.32386 36.3764 6.62926C36.5729 6.93466 36.6712 7.27202 36.6712 7.64134C36.6735 8.0509 36.5528 8.39418 36.3089 8.67116C36.0675 8.94815 35.7502 9.12926 35.3572 9.21449V9.27131C35.8686 9.34233 36.2604 9.53172 36.5327 9.83949C36.8073 10.1449 36.9434 10.5249 36.9411 10.9794C36.9411 11.3866 36.825 11.7512 36.593 12.0732C36.3634 12.3928 36.0462 12.6437 35.6413 12.826C35.2389 13.0083 34.7772 13.0994 34.2564 13.0994Z" fill="white"/>
</svg>
