<svg width="40" height="40" viewBox="0 0 40 40" fill="none" xmlns="http://www.w3.org/2000/svg">
<path fill-rule="evenodd" clip-rule="evenodd" d="M22.7847 24.1991C19.6462 26.6416 15.1065 26.4205 12.2218 23.5358C9.09761 20.4116 9.09761 15.3462 12.2218 12.2221C15.346 9.09786 20.4113 9.09786 23.5355 12.2221C26.4202 15.1068 26.6414 19.6464 24.1989 22.7849L28.4853 27.0713C28.8758 27.4618 28.8758 28.095 28.4853 28.4855C28.0948 28.876 27.4616 28.876 27.0711 28.4855L22.7847 24.1991ZM13.636 22.1215C15.9792 24.4647 19.7782 24.4647 22.1213 22.1215C24.4644 19.7784 24.4644 15.9794 22.1213 13.6363C19.7782 11.2931 15.9792 11.2931 13.636 13.6363C11.2929 15.9794 11.2929 19.7784 13.636 22.1215Z" fill="#667085"/>
</svg>
