<svg width="24" height="24" viewBox="0 0 24 24" fill="none" xmlns="http://www.w3.org/2000/svg">
<path fill-rule="evenodd" clip-rule="evenodd" d="M16 12C16 14.2091 14.2091 16 12 16C9.79086 16 8 14.2091 8 12C8 9.79086 9.79086 8 12 8C14.2091 8 16 9.79086 16 12ZM14 12C14 13.1046 13.1046 14 12 14C10.8954 14 10 13.1046 10 12C10 10.8954 10.8954 10 12 10C13.1046 10 14 10.8954 14 12Z" fill="#667085"/>
<path fill-rule="evenodd" clip-rule="evenodd" d="M3.51026 13.4144L4.16603 13.0204C4.12293 12.6863 4.1007 12.3458 4.1007 12C4.1007 11.6543 4.12292 11.3137 4.16602 10.9797L3.51163 10.5866C2.56483 10.0177 2.25848 8.78894 2.82737 7.84214L4.0201 5.85712C4.58899 4.91032 5.8177 4.60397 6.7645 5.17286L7.41911 5.56619C7.86036 5.25176 8.33533 4.9816 8.83754 4.76217V4C8.83754 2.89543 9.73297 2 10.8375 2H13.1533C14.2579 2 15.1533 2.89543 15.1533 4V4.76217C15.6556 4.98161 16.1305 5.25178 16.5718 5.56622L17.2279 5.17199C18.1747 4.6031 19.4034 4.90945 19.9723 5.85625L21.165 7.84127C21.7339 8.78807 21.4276 10.0168 20.4808 10.5857L19.8249 10.9798C19.868 11.3138 19.8902 11.6543 19.8902 12C19.8902 12.3457 19.868 12.6863 19.8249 13.0203L20.4792 13.4135C21.426 13.9824 21.7324 15.2111 21.1635 16.1579L19.9708 18.1429C19.4019 19.0897 18.1732 19.3961 17.2264 18.8272L16.5717 18.4338C16.1305 18.7483 15.6555 19.0184 15.1533 19.2378V20C15.1533 21.1046 14.2579 22 13.1533 22H10.8375C9.73297 22 8.83754 21.1046 8.83754 20V19.2378C8.33536 19.0184 7.86042 18.7483 7.4192 18.4339L6.76314 18.8281C5.81634 19.397 4.58762 19.0906 4.01873 18.1438L2.82601 16.1588C2.25711 15.212 2.56346 13.9833 3.51026 13.4144ZM9.63829 6.59488L10.8375 6.0709V4L13.1533 4V6.0709L14.3526 6.59488C14.7268 6.75839 15.0813 6.95997 15.4112 7.195L16.4785 7.95556L18.258 6.88633L19.4507 8.87135L17.674 9.93891L17.8413 11.2357C17.8735 11.4851 17.8902 11.7401 17.8902 12C17.8902 12.2599 17.8735 12.515 17.8413 12.7644L17.674 14.0612L19.4492 15.1278L18.2565 17.1129L16.4784 16.0445L15.4111 16.805C15.0813 17.0401 14.7268 17.2416 14.3526 17.4051L13.1533 17.9291V20H10.8375V17.9291L9.63829 17.4051C9.26408 17.2416 8.9096 17.0401 8.5798 16.8051L7.51249 16.0446L5.73306 17.1137L4.54034 15.1287L6.31694 14.0612L6.14959 12.7644C6.11741 12.515 6.1007 12.26 6.1007 12C6.1007 11.7401 6.1174 11.485 6.14958 11.2357L6.31691 9.93886L4.54171 8.87221L5.73443 6.88719L7.51242 7.95552L8.57974 7.19497C8.90956 6.95995 9.26406 6.75839 9.63829 6.59488Z" fill="#667085"/>
</svg>
