<svg width="24" height="24" viewBox="0 0 24 24" fill="none" xmlns="http://www.w3.org/2000/svg">
<path fill-rule="evenodd" clip-rule="evenodd" d="M16.6608 2C17.6951 2 18.6566 2.53286 19.2048 3.41L21.4103 6.93883C21.5695 7.19353 21.6539 7.48785 21.6539 7.78821C21.6539 8.84672 21.2108 9.80174 20.5 10.4779V18C20.5 20.2091 18.7091 22 16.5 22H7.5C5.29086 22 3.5 20.2091 3.5 18V10.4779C2.78924 9.80167 2.34619 8.84668 2.34619 7.78821C2.34619 7.48785 2.4306 7.19353 2.58979 6.93883L4.79531 3.41C5.34352 2.53286 6.30493 2 7.3393 2H16.6608ZM7.3393 4C6.99451 4 6.67404 4.17762 6.4913 4.47L4.34958 7.89676C4.40557 8.79158 5.14904 9.5 6.05798 9.5H6.23081C7.27165 9.5 8.11542 8.65623 8.11542 7.61538H10.1154C10.1154 8.65623 10.9592 9.5 12 9.5C13.0409 9.5 13.8847 8.65623 13.8847 7.61538H15.8847C15.8847 8.65623 16.7284 9.5 17.7693 9.5H17.9421C18.851 9.5 19.5945 8.79158 19.6505 7.89676L17.5088 4.47C17.326 4.17762 17.0056 4 16.6608 4H7.3393ZM17.9421 11.5C18.1317 11.5 18.318 11.4858 18.5 11.4583V18C18.5 19.1046 17.6046 20 16.5 20H16V16C16 14.3431 14.6569 13 13 13H11C9.34315 13 8 14.3431 8 16V20H7.5C6.39543 20 5.5 19.1046 5.5 18V11.4583C5.682 11.4858 5.86833 11.5 6.05798 11.5H6.23081C7.37546 11.5 8.40448 11.0049 9.11542 10.2172C9.82636 11.0049 10.8554 11.5 12 11.5C13.1447 11.5 14.1737 11.0049 14.8847 10.2172C15.5956 11.0049 16.6246 11.5 17.7693 11.5H17.9421ZM10 20H14V16C14 15.4477 13.5523 15 13 15H11C10.4477 15 10 15.4477 10 16V20Z" fill="#667085"/>
</svg>
