<svg width="48" height="44" viewBox="0 0 48 44" fill="none" xmlns="http://www.w3.org/2000/svg">
<path fill-rule="evenodd" clip-rule="evenodd" d="M9.99999 16.1667C15.1083 16.1667 17.5256 19.5917 18.3766 21.1929C18.6475 21.7027 18.6475 22.2974 18.3766 22.8073C17.5256 24.4084 15.1083 27.8334 9.99999 27.8334C4.89166 27.8334 2.47438 24.4084 1.62341 22.8073C1.35245 22.2974 1.35245 21.7027 1.62341 21.1929C2.47438 19.5917 4.89166 16.1667 9.99999 16.1667ZM5.69694 19.0648C4.31339 19.9815 3.5055 21.2029 3.09514 21.9751C3.09056 21.9837 3.08867 21.9897 3.08785 21.993C3.08702 21.9963 3.08686 22.0001 3.08686 22.0001C3.08686 22.0001 3.08702 22.0039 3.08785 22.0072C3.08867 22.0105 3.09056 22.0165 3.09514 22.0251C3.5055 22.7972 4.31339 24.0186 5.69694 24.9353C5.12572 24.0995 4.79166 23.0888 4.79166 22.0001C4.79166 20.9113 5.12572 19.9006 5.69694 19.0648ZM14.303 24.9353C15.6866 24.0186 16.4945 22.7972 16.9048 22.0251C16.9094 22.0165 16.9113 22.0105 16.9121 22.0072C16.9127 22.005 16.913 22.002 16.913 22.002L16.9131 22.0001L16.9128 21.9964L16.9121 21.993C16.9113 21.9897 16.9094 21.9837 16.9048 21.9751C16.4945 21.2029 15.6866 19.9815 14.303 19.0648C14.8743 19.9006 15.2083 20.9113 15.2083 22.0001C15.2083 23.0888 14.8743 24.0995 14.303 24.9353ZM6.45832 22.0001C6.45832 20.0441 8.04398 18.4584 9.99999 18.4584C11.956 18.4584 13.5417 20.0441 13.5417 22.0001C13.5417 23.9561 11.956 25.5417 9.99999 25.5417C8.04398 25.5417 6.45832 23.9561 6.45832 22.0001Z" fill="#667085"/>
<path fill-rule="evenodd" clip-rule="evenodd" d="M45.3047 18.8202C46.281 17.8438 46.281 16.2609 45.3047 15.2846L44.7155 14.6954C43.7391 13.7191 42.1562 13.7191 41.1799 14.6954L31.691 24.1843C31.3462 24.529 31.1098 24.967 31.0108 25.4444L30.3411 28.6738C30.2193 29.261 30.7391 29.7807 31.3263 29.6589L34.5556 28.9892C35.033 28.8902 35.471 28.6538 35.8158 28.3091L45.3047 18.8202ZM44.1262 16.4631L43.5369 15.8739C43.2115 15.5484 42.6839 15.5484 42.3584 15.8739L41.4745 16.7578L43.2423 18.5256L44.1262 17.6416C44.4516 17.3162 44.4516 16.7886 44.1262 16.4631ZM42.0638 19.7041L40.296 17.9363L32.8695 25.3628C32.7546 25.4777 32.6758 25.6237 32.6428 25.7829L32.2308 27.7692L34.2172 27.3573C34.3763 27.3243 34.5223 27.2455 34.6373 27.1306L42.0638 19.7041Z" fill="#667085"/>
</svg>
