<svg width="40" height="40" viewBox="0 0 40 40" fill="none" xmlns="http://www.w3.org/2000/svg">
<rect x="2" y="2" width="36" height="36" rx="18" fill="#FAE1CF"/>
<rect x="2" y="2" width="36" height="36" rx="18" stroke="#FDF1E8" stroke-width="4"/>
<path d="M23 20.5C22.4477 20.5 22 20.9477 22 21.5C22 22.0523 22.4477 22.5 23 22.5H25C25.5523 22.5 26 22.0523 26 21.5C26 20.9477 25.5523 20.5 25 20.5H23Z" fill="#E46A11"/>
<path fill-rule="evenodd" clip-rule="evenodd" d="M28 14.5C29.1046 14.5 30 15.3954 30 16.5V26C30 27.6569 28.6569 29 27 29H13C11.3431 29 10 27.6569 10 26V14C10 12.3431 11.3431 11 13 11H25C26.6569 11 28 12.3431 28 14V14.5ZM25 13H13C12.4477 13 12 13.4477 12 14V26C12 26.5523 12.4477 27 13 27H27C27.5523 27 28 26.5523 28 26V16.5H17C16.4477 16.5 16 16.0523 16 15.5C16 14.9477 16.4477 14.5 17 14.5H26V14C26 13.4477 25.5523 13 25 13Z" fill="#E46A11"/>
</svg>
