<svg width="20" height="20" viewBox="0 0 20 20" fill="none" xmlns="http://www.w3.org/2000/svg">
<path d="M10.8333 6.66667C10.8333 7.1269 11.2064 7.5 11.6667 7.5C12.1269 7.5 12.5 7.1269 12.5 6.66667V5.83333H16.6667C17.1269 5.83333 17.5 5.46024 17.5 5C17.5 4.53976 17.1269 4.16667 16.6667 4.16667H12.5V3.33333C12.5 2.8731 12.1269 2.5 11.6667 2.5C11.2064 2.5 10.8333 2.8731 10.8333 3.33333V6.66667Z" fill="#667085"/>
<path d="M2.5 10C2.5 9.53976 2.8731 9.16667 3.33333 9.16667H4.58333C4.81345 9.16667 5 9.35321 5 9.58333V10.4167C5 10.6468 4.81345 10.8333 4.58333 10.8333H3.33333C2.8731 10.8333 2.5 10.4602 2.5 10Z" fill="#667085"/>
<path d="M7.5 7.5C7.03976 7.5 6.66667 7.8731 6.66667 8.33333V11.6667C6.66667 12.1269 7.03976 12.5 7.5 12.5C7.96024 12.5 8.33333 12.1269 8.33333 11.6667V10.8333H16.6667C17.1269 10.8333 17.5 10.4602 17.5 10C17.5 9.53976 17.1269 9.16667 16.6667 9.16667H8.33333V8.33333C8.33333 7.8731 7.96024 7.5 7.5 7.5Z" fill="#667085"/>
<path d="M2.5 5C2.5 4.53976 2.8731 4.16667 3.33333 4.16667H8.75C8.98012 4.16667 9.16667 4.35321 9.16667 4.58333V5.41667C9.16667 5.64679 8.98012 5.83333 8.75 5.83333H3.33333C2.8731 5.83333 2.5 5.46024 2.5 5Z" fill="#667085"/>
<path d="M12.5 13.3333C12.5 12.8731 12.8731 12.5 13.3333 12.5C13.7936 12.5 14.1667 12.8731 14.1667 13.3333V14.1667H16.6667C17.1269 14.1667 17.5 14.5398 17.5 15C17.5 15.4602 17.1269 15.8333 16.6667 15.8333H14.1667V16.6667C14.1667 17.1269 13.7936 17.5 13.3333 17.5C12.8731 17.5 12.5 17.1269 12.5 16.6667V13.3333Z" fill="#667085"/>
<path d="M2.5 15C2.5 14.5398 2.8731 14.1667 3.33333 14.1667H10.4167C10.6468 14.1667 10.8333 14.3532 10.8333 14.5833V15.4167C10.8333 15.6468 10.6468 15.8333 10.4167 15.8333H3.33333C2.8731 15.8333 2.5 15.4602 2.5 15Z" fill="#667085"/>
</svg>
