<svg width="40" height="40" viewBox="0 0 40 40" fill="none" xmlns="http://www.w3.org/2000/svg">
<rect x="2" y="2" width="36" height="36" rx="18" fill="#FCDAD7"/>
<rect x="2" y="2" width="36" height="36" rx="18" stroke="#FEEDEC" stroke-width="4"/>
<path d="M14 13C13.4477 13 13 13.4477 13 14V16C13 16.5523 12.5523 17 12 17C11.4477 17 11 16.5523 11 16V14C11 12.3431 12.3431 11 14 11H17C17.5523 11 18 11.4477 18 12C18 12.5523 17.5523 13 17 13H14Z" fill="#F04438"/>
<path d="M26 13C26.5523 13 27 13.4477 27 14V16C27 16.5523 27.4477 17 28 17C28.5523 17 29 16.5523 29 16V14C29 12.3431 27.6569 11 26 11H23C22.4477 11 22 11.4477 22 12C22 12.5523 22.4477 13 23 13H26Z" fill="#F04438"/>
<path d="M13 26C13 26.5523 13.4477 27 14 27H17C17.5523 27 18 27.4477 18 28C18 28.5523 17.5523 29 17 29H14C12.3431 29 11 27.6569 11 26V24C11 23.4477 11.4477 23 12 23C12.5523 23 13 23.4477 13 24V26Z" fill="#F04438"/>
<path d="M26 27C26.5523 27 27 26.5523 27 26V24C27 23.4477 27.4477 23 28 23C28.5523 23 29 23.4477 29 24V26C29 27.6569 27.6569 29 26 29H23C22.4477 29 22 28.5523 22 28C22 27.4477 22.4477 27 23 27H26Z" fill="#F04438"/>
<path d="M12 19C11.4477 19 11 19.4477 11 20C11 20.5523 11.4477 21 12 21H28C28.5523 21 29 20.5523 29 20C29 19.4477 28.5523 19 28 19H12Z" fill="#F04438"/>
</svg>
