<svg width="24" height="24" viewBox="0 0 24 24" fill="none" xmlns="http://www.w3.org/2000/svg">
<path fill-rule="evenodd" clip-rule="evenodd" d="M3 11C3 6.02944 7.02944 2 12 2C16.9706 2 21 6.02944 21 11V19C21 20.6569 19.6569 22 18 22H17C15.3431 22 14 20.6569 14 19V16C14 14.3431 15.3431 13 17 13H18C18.3506 13 18.6872 13.0602 19 13.1707V11C19 7.13401 15.866 4 12 4C8.13401 4 5 7.13401 5 11V13.1707C5.31278 13.0602 5.64936 13 6 13H7C8.65685 13 10 14.3431 10 16V19C10 20.6569 8.65685 22 7 22H6C4.34315 22 3 20.6569 3 19V11ZM19 16C19 15.4477 18.5523 15 18 15H17C16.4477 15 16 15.4477 16 16V19C16 19.5523 16.4477 20 17 20H18C18.5523 20 19 19.5523 19 19V16ZM5 19V16C5 15.4477 5.44772 15 6 15H7C7.55228 15 8 15.4477 8 16V19C8 19.5523 7.55228 20 7 20H6C5.44772 20 5 19.5523 5 19Z" fill="#667085"/>
</svg>
