<svg width="40" height="40" viewBox="0 0 40 40" fill="none" xmlns="http://www.w3.org/2000/svg">
<rect x="2" y="2" width="36" height="36" rx="18" fill="#DEDEFA"/>
<rect x="2" y="2" width="36" height="36" rx="18" stroke="#EFEFFD" stroke-width="4"/>
<path d="M23.9666 18.4475C24.3519 18.0517 24.3433 17.4186 23.9475 17.0334C23.5517 16.6482 22.9186 16.6568 22.5334 17.0525L19.2737 20.4017L17.8755 19.2809C17.4446 18.9354 16.8152 19.0047 16.4698 19.4356C16.1244 19.8666 16.1936 20.4959 16.6246 20.8414L19.0857 22.8143C19.2867 22.9754 19.5771 22.9575 19.7567 22.7729L23.9666 18.4475Z" fill="#5C59E8"/>
<path fill-rule="evenodd" clip-rule="evenodd" d="M10 15C10 13.3431 11.3431 12 13 12H27C28.6569 12 30 13.3431 30 15V25C30 26.6569 28.6569 28 27 28H13C11.3431 28 10 26.6569 10 25V15ZM26.1707 14H27C27.5523 14 28 14.4477 28 15V15.8293C27.1476 15.528 26.472 14.8524 26.1707 14ZM24.1 14H15.9C15.5023 15.9591 13.9591 17.5023 12 17.9V22.1C13.9591 22.4977 15.5023 24.0409 15.9 26H24.1C24.4977 24.0409 26.0409 22.4977 28 22.1V17.9C26.0409 17.5023 24.4977 15.9591 24.1 14ZM28 24.1707C27.1476 24.472 26.472 25.1476 26.1707 26H27C27.5523 26 28 25.5523 28 25V24.1707ZM13.8293 26C13.528 25.1476 12.8524 24.472 12 24.1707V25C12 25.5523 12.4477 26 13 26H13.8293ZM12 15.8293C12.8524 15.528 13.528 14.8524 13.8293 14H13C12.4477 14 12 14.4477 12 15V15.8293Z" fill="#5C59E8"/>
</svg>
