<svg width="40" height="40" viewBox="0 0 40 40" fill="none" xmlns="http://www.w3.org/2000/svg">
<rect x="2" y="2" width="36" height="36" rx="18" fill="#CFE7DC"/>
<rect x="2" y="2" width="36" height="36" rx="18" stroke="#E7F4EE" stroke-width="4"/>
<path fill-rule="evenodd" clip-rule="evenodd" d="M14.638 12.1223C14.4569 11.1806 13.6329 10.5 12.674 10.5H11C10.4477 10.5 10 10.9477 10 11.5C10 12.0523 10.4477 12.5 11 12.5L12.674 12.5L14.55 22.2554C14.9122 24.1388 16.5602 25.5 18.478 25.5H24.6873C26.5044 25.5 28.0932 24.2752 28.5556 22.518L29.8068 17.7635C30.3074 15.8612 28.8726 14 26.9056 14H14.9991L14.638 12.1223ZM15.3837 16L16.514 21.8777C16.6951 22.8194 17.5191 23.5 18.478 23.5H24.6873C25.5959 23.5 26.3903 22.8876 26.6215 22.009L27.8727 17.2545C28.0395 16.6204 27.5613 16 26.9056 16H15.3837Z" fill="#0D894F"/>
<path d="M16.75 29.5C15.9215 29.5 15.25 28.8284 15.25 28C15.25 27.1716 15.9215 26.5 16.75 26.5C17.5784 26.5 18.25 27.1716 18.25 28C18.25 28.8284 17.5784 29.5 16.75 29.5Z" fill="#0D894F"/>
<path d="M25.5 29.5C24.6715 29.5 24 28.8284 24 28C24 27.1716 24.6715 26.5 25.5 26.5C26.3284 26.5 27 27.1716 27 28C27 28.8284 26.3284 29.5 25.5 29.5Z" fill="#0D894F"/>
</svg>
